<?xml version="1.0" encoding="UTF-8" standalone="no"?>
<svg
   _ngcontent-c31=""
   class="logo-icon"
   viewBox="0 0 815.6 142.9"
   version="1.1"
   id="svg4"
   sodipodi:docname="santander-logo.svg"
   inkscape:version="1.1 (c68e22c387, 2021-05-23)"
   xmlns:inkscape="http://www.inkscape.org/namespaces/inkscape"
   xmlns:sodipodi="http://sodipodi.sourceforge.net/DTD/sodipodi-0.dtd"
   xmlns="http://www.w3.org/2000/svg"
   xmlns:svg="http://www.w3.org/2000/svg"
   xmlns:rdf="http://www.w3.org/1999/02/22-rdf-syntax-ns#"
   xmlns:cc="http://creativecommons.org/ns#"
   xmlns:dc="http://purl.org/dc/elements/1.1/">
  <metadata
     id="metadata10">
    <rdf:RDF>
      <cc:Work
         rdf:about="">
        <dc:format>image/svg+xml</dc:format>
        <dc:type
           rdf:resource="http://purl.org/dc/dcmitype/StillImage" />
      </cc:Work>
    </rdf:RDF>
  </metadata>
  <defs
     id="defs8" />
  <sodipodi:namedview
     pagecolor="#ffffff"
     bordercolor="#666666"
     borderopacity="1"
     objecttolerance="10"
     gridtolerance="10"
     guidetolerance="10"
     inkscape:pageopacity="0"
     inkscape:pageshadow="2"
     inkscape:window-width="1920"
     inkscape:window-height="1001"
     id="namedview6"
     showgrid="false"
     inkscape:zoom="1.0993274"
     inkscape:cx="597.18333"
     inkscape:cy="203.30613"
     inkscape:window-x="1699"
     inkscape:window-y="-9"
     inkscape:window-maximized="1"
     inkscape:current-layer="svg4"
     inkscape:pagecheckerboard="0" />
  <path
     _ngcontent-c31=""
     d="m 107.6,-111.98119 c -0.2,-5.2 -1.7,-10.3 -4.3,-14.9 l -23.5,-40.6 c -1.8,-3.1 -3,-6.4 -3.7,-9.9 l -1,1.7 c -5.8,10.1 -5.8,22.5 0,32.6 l 18.8,32.6 c 5.8,10.1 5.8,22.500002 0,32.600002 l -1,1.7 c -0.7,-3.5 -1.9,-6.8 -3.7,-9.8 L 72,-115.88119 l -11,-19 c -1.8,-3.1 -3,-6.4 -3.7,-9.8 l -1,1.7 c -5.8,10 -5.8,22.4 -0.1,32.5 v 0 l 18.9,32.600002 c 5.8,10.1 5.8,22.5 0,32.6 l -1,1.7 c -0.7,-3.5 -2,-6.8 -3.7,-9.8 l -23.5,-40.8 c -3.1,-5.4 -4.6,-11.500002 -4.3,-17.700002 -25.2,6.5 -42.6,20.500002 -42.6,36.700002 0,22.5 33.6,40.7 75.1,40.7 41.5,0 75.1,-18.2 75.1,-40.7 0,-16.2 -17.4,-30.200002 -42.6,-36.800002 z m 70.9,69.600002 c 0.2,-4.9 1.1,-9.7 2.7,-14.2 8.1,3.6 16.9,5.4 25.8,5.5 13.1,0 20.4,-4.2 20.4,-12.6 0,-8.4 -5.4,-12 -18.6,-17.8 l -7.2,-3.1 c -13.3,-5.8 -22.3,-13.3 -22.3,-28.200002 0,-16.1 11.1,-26.4 34,-26.4 8.8,-0.1 17.5,1.3 25.8,4.1 -0.3,4.8 -1.3,9.5 -2.8,14.1 -7.4,-2.6 -15.2,-4 -23.1,-4.1 -12.3,0 -17.9,4.8 -17.9,12.3 0,7.5 5.5,11.6 15.4,15.800002 l 7.6,3.2 c 17.9,7.6 25.4,15.7 25.4,29.4 0,16.2 -12.3,27.4 -36.2,27.4 -11.6,0 -21.1,-1.7 -29,-5.4 z m 141,-67.400002 v 70.500002 h -14.2 l -0.8,-8.5 c -4,6.2 -10,10.1 -19.9,10.1 -18.6,0 -31,-13.5 -31,-37.2 0,-24.8 13.3,-38.900002 39.4,-38.900002 10,0 18.3,1.1 26.5,4 z m -15.6,54.400002 v -44.3 c -3.7,-0.600002 -7.4,-0.900002 -11.1,-0.800002 -16.1,0 -23.5,9.900002 -23.5,25.700002 0,14.4 5.8,24.5 19.6,24.5 5.4,0 10.7,-1.8 15,-5.1 z m 95,-31.3 v 47.4 h -15.5 v -44.7 c 0,-11.1 -3.7,-16.500002 -19.2,-16.500002 -4.1,0.1 -8.2,0.4 -12.3,1.100002 v 60.1 h -15.5 v -70.500002 c 9.9,-2.4 20.7,-3.9 28.2,-3.9 25.9,-0.1 34.3,9.9 34.3,27.000002 z m 43,35.8 c 4.1,0 8.2,-0.7 12.1,-2.1 -0.4,4.2 -1,9 -1.8,13.1 -4.2,1.6 -8.6,2.3 -13.1,2.2 -15.1,0 -24.7,-6.9 -24.7,-24.1 v -74.000002 c 5,-1.5 10.3,-2.3 15.5,-2.3 v 26.7 h 24.5 c -0.2,4.4 -0.7,8.9 -1.4,13.300002 h -23.1 v 34.6 c 0,9.1 4.5,12.6 12,12.6 z m 83.2,-59.000002 v 70.500002 h -14.2 l -0.9,-8.5 c -4,6.2 -10,10.1 -19.9,10.1 -18.6,0 -31,-13.5 -31,-37.2 0,-24.8 13.3,-38.900002 39.4,-38.900002 10.1,0.1 18.4,1.2 26.6,4 z m -15.5,54.500002 v -44.3 c -3.7,-0.600002 -7.4,-0.900002 -11.1,-0.800002 -16.1,0 -23.6,9.900002 -23.6,25.700002 0,14.4 5.8,24.5 19.6,24.5 5.5,0 10.8,-1.8 15.1,-5.1 z m 94.9,-31.3 v 47.4 H 589 v -44.7 c 0,-11.1 -3.7,-16.500002 -19.2,-16.500002 -4.1,0.1 -8.2,0.4 -12.2,1.100002 v 60.1 H 542 v -70.500002 c 9.9,-2.4 20.7,-3.9 28.2,-3.9 26,-0.1 34.3,9.9 34.3,27.000002 z m 78.7,-51.400002 v 98.700002 H 669 l -0.8,-9 c -4,6.6 -10,10.7 -20.2,10.7 -18.6,0 -31,-13.5 -31,-37.2 0,-24.8 13.3,-38.900002 39.3,-38.900002 3.9,0 7.8,0.4 11.6,1.1 v -23.2 c 4.8,-1.7 10.3,-2.2 15.3,-2.2 z m -15.3,82.400002 v -43.4 c -4.1,-0.9 -8.2,-1.400002 -12.4,-1.400002 -15.4,0 -22.7,9.600002 -22.7,25.700002 0,14.4 5.8,24.5 19.6,24.5 5.6,0 11.1,-1.9 15.5,-5.4 z m 93.4,-13.8 h -49.5 c 2,12.6 9.3,18.6 23.1,18.6 8.6,0 17,-1.8 24.8,-5.4 -0.6,4.1 -1.4,9.5 -2.4,14.1 -7.1,3.2 -14.5,4.5 -22.8,4.5 -26,0 -38.5,-14.4 -38.5,-38.5 0,-21 9.7,-37.700002 34.4,-37.700002 22.1,0 31.7,14.500002 31.7,32.300002 0,4.1 -0.3,8.1 -0.8,12.1 z m -49.8,-13 h 35 c 0,-11.6 -6.2,-18.300002 -16.9,-18.300002 -11.1,0 -16.9,6.300002 -18.1,18.300002 z m 104.1,-30.700002 c 0,4.5 -0.4,8.9 -1.4,13.300002 -3.9,-0.400002 -7.8,-0.600002 -11.7,-0.600002 -3.8,0 -7.6,0.3 -11.4,0.800002 v 60.4 h -15.5 v -70.500002 c 6.6,-2.2 17.8,-3.9 26.5,-3.9 4.4,-0.1 9,0.1 13.5,0.5 z"
     id="path2"
     style="fill:#ec0000;fill-opacity:1"
     inkscape:export-xdpi="5.8852382"
     inkscape:export-ydpi="5.8852382" />
  <rect
     style="fill:#ec0000;fill-opacity:1;fill-rule:evenodd;stroke-width:1.23732984"
     id="rect843"
     width="1054.877"
     height="362.77475"
     x="-113.20631"
     y="214.94037"
     inkscape:export-xdpi="4.5502939"
     inkscape:export-ydpi="4.5502939" />
  <path
     inkscape:connector-curvature="0"
     _ngcontent-c31=""
     d="M 114.51949,65.923373 C 114.32331,60.822676 112.85195,55.82007 110.3016,51.307916 L 87.250379,11.483248 C 85.484754,8.442449 84.30767,5.2054687 83.621038,1.7723078 l -0.980903,1.6675353 c -5.689238,9.9071209 -5.689238,22.0703199 0,31.9774419 l 18.440975,31.977442 c 5.68924,9.907122 5.68924,22.070321 0,31.977443 l -0.9809,1.66754 C 99.413578,97.606544 98.236495,94.369564 96.470869,91.426854 L 79.599335,62.09785 68.8094,43.460691 c -1.765625,-3.0408 -2.942709,-6.27778 -3.629341,-9.612851 l -0.980903,1.667535 c -5.689239,9.809032 -5.689239,21.972231 -0.09809,31.879352 v 0 l 18.53907,31.977443 c 5.689238,9.90713 5.689238,22.07032 0,31.97745 l -0.980903,1.66753 C 80.9726,129.58399 79.697426,126.34701 78.029891,123.4043 L 54.978666,83.383449 C 51.937866,78.086572 50.466512,72.103063 50.760783,66.021463 26.042024,72.397333 8.9743036,86.129977 8.9743036,102.02061 c 0,22.07032 32.9583504,39.92276 73.6658314,39.92276 40.707485,0 73.665825,-17.85244 73.665825,-39.92276 0,-15.890633 -17.06771,-29.623277 -41.78647,-36.097237 z m 69.54603,68.270867 c 0.19618,-4.80643 1.07899,-9.51477 2.64844,-13.92883 7.94532,3.53125 16.57727,5.29688 25.30731,5.39497 12.84983,0 20.01042,-4.1198 20.01042,-12.35938 0,-8.23959 -5.29687,-11.77084 -18.24479,-17.460082 l -7.06251,-3.040799 C 193.67838,87.110881 184.85024,79.754107 184.85024,65.13865 c 0,-15.79254 10.88804,-25.895843 33.35072,-25.895843 8.63195,-0.09809 17.1658,1.275174 25.3073,4.021703 -0.29427,4.708335 -1.27517,9.31858 -2.74653,13.830734 -7.25868,-2.550348 -14.90973,-3.923612 -22.65886,-4.021702 -12.06511,0 -17.55817,4.708335 -17.55817,12.065108 0,7.356774 5.39497,11.378477 15.10591,15.49827 l 7.45487,3.13889 c 17.55816,7.454864 24.91493,15.40018 24.91493,28.83856 0,15.89063 -12.0651,26.87674 -35.50869,26.87674 -11.37848,0 -20.69706,-1.66753 -28.4462,-5.29687 z M 322.37287,68.08136 v 69.15367 h -13.92882 l -0.78472,-8.33767 c -3.92362,6.0816 -9.80904,9.90712 -19.51998,9.90712 -18.2448,0 -30.40799,-13.24219 -30.40799,-36.4896 0,-24.326399 13.04601,-38.157133 38.64758,-38.157133 9.80903,0 17.95053,1.078994 25.99393,3.923613 z m -15.30209,53.36113 V 77.988481 c -3.62934,-0.588542 -7.25868,-0.882812 -10.88802,-0.784722 -15.79254,0 -23.05122,9.710941 -23.05122,25.209211 0,14.12501 5.68923,24.03213 19.2257,24.03213 5.29687,0 10.49566,-1.76563 14.71354,-5.00261 z M 400.25657,90.740222 V 137.23503 H 385.05258 V 93.388661 c 0,-10.888025 -3.62934,-16.184902 -18.83334,-16.184902 -4.0217,0.09809 -8.0434,0.392361 -12.06511,1.078993 V 137.23503 H 338.95014 V 68.08136 c 9.71094,-2.354168 20.30469,-3.825523 27.66146,-3.825523 25.40539,-0.09809 33.64497,9.710941 33.64497,26.484385 z m 42.17884,35.116338 c 4.0217,0 8.0434,-0.68663 11.86893,-2.0599 -0.39237,4.1198 -0.98091,8.82813 -1.76563,12.84983 -4.11979,1.56945 -8.43577,2.25608 -12.84983,2.15799 -14.81164,0 -24.22831,-6.76823 -24.22831,-23.63977 V 42.577878 c 4.90452,-1.471355 10.1033,-2.256077 15.204,-2.256077 v 26.190114 h 24.03213 c -0.19618,4.315973 -0.68664,8.730038 -1.37327,13.046011 h -22.65886 v 33.939254 c 0,8.92622 4.41406,12.35938 11.77084,12.35938 z m 81.61114,-57.873291 v 69.153671 h -13.92883 l -0.88281,-8.33767 c -3.92361,6.0816 -9.80903,9.90712 -19.51997,9.90712 -18.2448,0 -30.408,-13.24219 -30.408,-36.4896 0,-24.326399 13.04601,-38.157133 38.64759,-38.157133 9.90712,0.09809 18.04861,1.177084 26.09202,3.923612 z m -15.204,53.459221 V 77.988481 c -3.62934,-0.588542 -7.25868,-0.882812 -10.88802,-0.784722 -15.79255,0 -23.14932,9.710941 -23.14932,25.209211 0,14.12501 5.68924,24.03213 19.2257,24.03213 5.39497,0 10.59376,-1.76563 14.81164,-5.00261 z m 93.08771,-30.702268 v 46.494808 h -15.204 V 93.388661 c 0,-10.888025 -3.62934,-16.184902 -18.83334,-16.184902 -4.0217,0.09809 -8.04341,0.392361 -11.96702,1.078993 V 137.23503 H 540.62381 V 68.08136 c 9.71094,-2.354168 20.3047,-3.825523 27.66147,-3.825523 25.50348,-0.09809 33.64498,9.710941 33.64498,26.484385 z m 77.19708,-50.418421 v 96.815139 h -13.92883 l -0.78472,-8.82812 c -3.92361,6.47396 -9.80903,10.49566 -19.81425,10.49566 -18.24479,0 -30.40799,-13.24219 -30.40799,-36.4896 0,-24.326399 13.04601,-38.157133 38.54949,-38.157133 3.82552,0 7.65105,0.392361 11.37848,1.078994 V 42.479788 c 4.70833,-1.667536 10.1033,-2.157987 15.00782,-2.157987 z M 664.11952,121.14822 V 78.577023 c -4.02171,-0.882813 -8.04341,-1.373264 -12.1632,-1.373264 -15.10591,0 -22.2665,9.41667 -22.2665,25.209211 0,14.12501 5.68924,24.03213 19.2257,24.03213 5.49306,0 10.88802,-1.86372 15.204,-5.29688 z m 91.61635,-13.53646 h -48.55471 c 1.96181,12.35938 9.1224,18.2448 22.65887,18.2448 8.43576,0 16.67535,-1.76563 24.3264,-5.29688 -0.58855,4.0217 -1.37327,9.31858 -2.35417,13.83074 -6.96441,3.13889 -14.2231,4.41406 -22.36459,4.41406 -25.50349,0 -37.76477,-14.12501 -37.76477,-37.76477 0,-20.598971 9.51476,-36.980053 33.74306,-36.980053 21.67796,0 31.09463,14.223095 31.09463,31.683171 0,4.021702 -0.29427,7.945322 -0.78472,11.868932 z M 706.88689,94.860015 h 34.33161 c 0,-11.378476 -6.0816,-17.950527 -16.57726,-17.950527 -10.88802,0 -16.57726,6.17969 -17.75435,17.950527 z M 808.99886,64.746289 c 0,4.414064 -0.39236,8.730038 -1.37326,13.046012 -3.82552,-0.392362 -7.65105,-0.588542 -11.47657,-0.588542 -3.72743,0 -7.45486,0.294271 -11.1823,0.784722 V 137.23503 H 769.76274 V 68.08136 c 6.47396,-2.157987 17.46007,-3.825523 25.99393,-3.825523 4.31597,-0.09809 8.82813,0.09809 13.24219,0.490452 z"
     id="path2-6-2"
     style="fill:#ffffff;fill-opacity:1;stroke-width:0.980903"
     inkscape:export-xdpi="4.5502939"
     inkscape:export-ydpi="4.5502939" />
  <text
     xml:space="preserve"
     style="font-style:normal;font-weight:normal;font-size:42.66666794px;line-height:1.25;font-family:sans-serif;letter-spacing:0px;word-spacing:0px;fill:#000000;fill-opacity:1;stroke:none"
     x="182.67381"
     y="729.51447"
     id="text868"><tspan
       sodipodi:role="line"
       id="tspan866"
       x="182.67381"
       y="729.51447">LOGODOWNLOAD.ORG</tspan></text>
</svg>
